# xmcd
#
# Track frame offsets:
#	150
#	4650
#	26482
#	37467
#	51067
#	67792
#	78562
#	95800
#	116670
#	130107
#	143842
#	153925
#	176002
#	189815
#	212377
#	227252
#	240712
#	257192
#	272020
#	293025
#	322495
#
# Disc length: 4495 seconds
#
# Revision: 4
# Processed by: cddbd v1.5.2PL0 Copyright (c) Steve Scherf et al.
# Submitted via: audiograbber 1.83.01
#
DISCID=26118d15
DTITLE=John Denver - An Evening With John Denver
DYEAR=1975
DGENRE=Country
TTITLE0=The Music Is You
TTITLE1=Farewell Andromeda
TTITLE2=Mother Nature's Son
TTITLE3=Summer
TTITLE4=Today
TTITLE5=Saturday Night In Toledo, Ohio
TTITLE6=Matthew
TTITLE7=Sweet Surrender
TTITLE8=Grandma's Feather Bed
TTITLE9=Annie's Song
TTITLE10=The Eagle And The Hawk
TTITLE11=My Sweet Lady
TTITLE12=Annie's Other Song
TTITLE13=Boy From The Country
TTITLE14=Rhymes and Reasons
TTITLE15=Forest Lawn
TTITLE16=Thank God I'm A Country Boy
TTITLE17=Take Me Home, Country Roads
TTITLE18=Poems, Prayers And Promises
TTITLE19=Rocky Mountain High
TTITLE20=This Old Guitar
EXTD=
EXTT0=
EXTT1=
EXTT2=
EXTT3=
EXTT4=
EXTT5=
EXTT6=
EXTT7=
EXTT8=
EXTT9=
EXTT10=
EXTT11=
EXTT12=
EXTT13=
EXTT14=
EXTT15=
EXTT16=
EXTT17=
EXTT18=
EXTT19=
EXTT20=
PLAYORDER=
